<svg width="48" height="48" viewBox="0 0 48 48" fill="none" xmlns="http://www.w3.org/2000/svg">
<path d="M5.113 41.663L18.27 8C30.567 8.946 38.135 20.297 40.973 29.757L6.331 42.928C5.54 43.248 4.763 42.441 5.113 41.663Z" fill="url(#paint0_linear_1_260)"/>
<path d="M21 12.999C21 15.759 18.76 17.999 16 17.999C15.46 17.999 14.94 17.909 14.45 17.759L18.09 8.45898C19.81 9.24898 21 10.989 21 12.999Z" fill="#CF1322"/>
<path opacity="0.05" d="M38.1 30.62C35.54 22.08 28.75 11.81 18.04 10.99C17.74 10.97 17.45 10.9 17.18 10.79L17 11.26L16.81 11.73C17.18 11.87 17.56 11.96 17.96 11.99C28.17 12.77 34.67 22.67 37.14 30.91C37.17 31 37.2 31.09 37.24 31.18L37.7 31L38.18 30.82C38.14 30.76 38.12 30.69 38.1 30.62Z" fill="#CF1322"/>
<path opacity="0.07" d="M38.1 30.62C35.54 22.08 28.75 11.81 18.04 10.99C17.74 10.97 17.45 10.9 17.18 10.79L17 11.26C17.31 11.39 17.65 11.46 18 11.49C28.46 12.29 35.1 22.37 37.62 30.76C37.64 30.84 37.67 30.92 37.7 31L38.18 30.82C38.14 30.76 38.12 30.69 38.1 30.62Z" fill="#CF1322"/>
<path d="M40.972 32.758C39.681 32.758 38.49 31.919 38.099 30.619C35.537 22.079 28.746 11.815 18.04 10.992C16.388 10.865 15.152 9.42297 15.279 7.77097C15.406 6.11897 16.861 4.87997 18.5 5.00997C32.236 6.06697 40.739 18.537 43.846 28.896C44.322 30.483 43.422 32.156 41.834 32.632C41.548 32.716 41.257 32.758 40.972 32.758Z" fill="url(#paint1_linear_1_260)"/>
<path d="M24 27.999C26.7614 27.999 29 25.7604 29 22.999C29 20.2376 26.7614 17.999 24 17.999C21.2386 17.999 19 20.2376 19 22.999C19 25.7604 21.2386 27.999 24 27.999Z" fill="#CF1322"/>
<path d="M17 24.999C17 27.759 14.76 29.999 12 29.999C11.23 29.999 10.51 29.829 9.86 29.519L13.49 20.219C15.52 20.859 17 22.759 17 24.999Z" fill="#CF1322"/>
<path d="M35.83 31.709L26.54 35.249C26.19 34.579 26 33.809 26 32.999C26 30.239 28.24 27.999 31 27.999C33.31 27.999 35.26 29.579 35.83 31.709Z" fill="#CF1322"/>
<path d="M24 35.999C24 36.069 24 36.149 23.99 36.219L15.41 39.479C14.54 38.579 14 37.349 14 35.999C14 33.239 16.24 30.999 19 30.999C21.76 30.999 24 33.239 24 35.999Z" fill="#CF1322"/>
<path d="M12 38.999C12 39.679 11.86 40.329 11.62 40.919L6.33 42.929C5.54 43.249 4.76 42.439 5.11 41.659L8.06 34.109C10.31 34.599 12 36.599 12 38.999Z" fill="#CF1322"/>
<defs>
<linearGradient id="paint0_linear_1_260" x1="23" y1="26.25" x2="23" y2="54.257" gradientUnits="userSpaceOnUse">
<stop stop-color="#FED100"/>
<stop offset="1" stop-color="#E38101"/>
</linearGradient>
<linearGradient id="paint1_linear_1_260" x1="11.23" y1="-2.64702" x2="47.792" y2="33.916" gradientUnits="userSpaceOnUse">
<stop stop-color="#D4943B"/>
<stop offset="1" stop-color="#C2620E"/>
</linearGradient>
</defs>
</svg>
